# WaveFront *.obj file (generated by Cheetah3D)

mtllib aspen.mtl

g Plane
v -0.500000 1.000000 0.000000
v -0.500000 0.000000 -0.000000
v 0.500000 1.000000 0.000000
v 0.500000 0.000000 -0.000000

vt 0.000000 1.000000
vt 1.000000 1.000000
vt 1.000000 0.000000
vt 0.000000 0.000000

vn 0.000000 -0.000000 1.000000

usemtl Material
f 2/4/1 4/3/1 3/2/1 1/1/1

usemtl default

g Plane.4
v -0.461940 1.000000 0.191342
v -0.461940 0.000000 0.191342
v 0.461940 1.000000 -0.191342
v 0.461940 0.000000 -0.191342

vt 0.000000 1.000000
vt 1.000000 1.000000
vt 1.000000 0.000000
vt 0.000000 0.000000

vn 0.382683 -0.000000 0.923880

usemtl Material
f 6/8/2 8/7/2 7/6/2 5/5/2

usemtl default

g Plane.5
v 0.191342 1.000000 0.461940
v 0.191342 0.000000 0.461940
v -0.191342 1.000000 -0.461940
v -0.191342 0.000000 -0.461940

vt 0.000000 1.000000
vt 1.000000 1.000000
vt 1.000000 0.000000
vt 0.000000 0.000000

vn 0.923880 -0.000000 -0.382683

usemtl Material
f 10/12/3 12/11/3 11/10/3 9/9/3

usemtl default

g Plane.6
v 0.461940 1.000000 0.191342
v 0.461940 0.000000 0.191342
v -0.461940 1.000000 -0.191342
v -0.461940 0.000000 -0.191342

vt 0.000000 1.000000
vt 1.000000 1.000000
vt 1.000000 0.000000
vt 0.000000 0.000000

vn 0.382683 -0.000000 -0.923880

usemtl Material
f 14/16/4 16/15/4 15/14/4 13/13/4

usemtl default

g Plane.7
v 0.191342 1.000000 -0.461940
v 0.191342 0.000000 -0.461940
v -0.191342 1.000000 0.461940
v -0.191342 0.000000 0.461940

vt 0.000000 1.000000
vt 1.000000 1.000000
vt 1.000000 0.000000
vt 0.000000 0.000000

vn -0.923880 -0.000000 -0.382684

usemtl Material
f 18/20/5 20/19/5 19/18/5 17/17/5

usemtl default

g Plane.1
v 0.000000 1.000000 0.500000
v 0.000000 0.000000 0.500000
v 0.000000 1.000000 -0.500000
v -0.000000 0.000000 -0.500000

vt 0.000000 1.000000
vt 1.000000 1.000000
vt 1.000000 0.000000
vt 0.000000 0.000000

vn 1.000000 -0.000000 -0.000000

usemtl Material
f 22/24/6 24/23/6 23/22/6 21/21/6

usemtl default

g Plane.2
v -0.353553 1.000000 0.353553
v -0.353553 0.000000 0.353553
v 0.353553 1.000000 -0.353553
v 0.353553 0.000000 -0.353553

vt 0.000000 1.000000
vt 1.000000 1.000000
vt 1.000000 0.000000
vt 0.000000 0.000000

vn 0.707107 -0.000000 0.707107

usemtl Material
f 26/28/7 28/27/7 27/26/7 25/25/7

usemtl default

g Plane.3
v 0.353553 1.000000 0.353553
v 0.353553 0.000000 0.353553
v -0.353553 1.000000 -0.353553
v -0.353553 0.000000 -0.353553

vt 0.000000 1.000000
vt 1.000000 1.000000
vt 1.000000 0.000000
vt 0.000000 0.000000

vn 0.707107 -0.000000 -0.707107

usemtl Material
f 30/32/8 32/31/8 31/30/8 29/29/8

usemtl default

